<!DOCTYPE svg PUBLIC "-//W3C//DTD SVG 1.1//EN" "http://www.w3.org/Graphics/SVG/1.1/DTD/svg11.dtd">
<!-- Uploaded to: SVG Repo, www.svgrepo.com, Transformed by: SVG Repo Mixer Tools -->
<svg width="800px" height="800px" viewBox="0 0 1024 1024" class="icon" version="1.1" xmlns="http://www.w3.org/2000/svg" fill="#000000" transform="matrix(-1, 0, 0, 1, 0, 0)">
<g id="SVGRepo_bgCarrier" stroke-width="0"/>
<g id="SVGRepo_tracerCarrier" stroke-linecap="round" stroke-linejoin="round"/>
<g id="SVGRepo_iconCarrier">
<path d="M899.088 885.176c0 45.008-170.744 81.496-381.344 81.496-210.608 0-381.336-36.488-381.336-81.496 0-45.008 173.392-78.504 384-78.504 210.6 0 378.68 33.496 378.68 78.504z" fill="#B8CBCD"/>
<path d="M262.448 591.712l-135.04 200.96c-16.592 26.88-1.88 69.408 25 86s78.408 24.384 95-2.504L367.2 656.904l81.88 9.152c96.968-5.128 196.464-64.16 258.12-164.04 92.456-149.776 64.832-334.504-61.696-412.616s-304.056-20.016-396.512 129.76c-54.264 87.904-67.112 187.832-42.92 271.2l-0.064-0.04 0.232 0.648 56.208 100.744z" fill="#B9E3ED"/>
<path d="M207.04 917.784c-22.8 0-48.56-7.168-67.232-18.688-35.592-21.968-57.68-78.752-32.816-119.024a21.52 21.52 0 0 1 0.504-0.784L234.32 590.552l-49.04-87.896a24.096 24.096 0 0 1-2.256-5.624c-27.176-93.68-10.576-199.568 45.552-290.488 66.968-108.488 178.96-175.88 292.264-175.88 49.216 0 96.688 13.248 137.28 38.304 137.592 84.936 168.776 284.848 69.512 445.648-63.272 102.496-169.52 169.704-277.28 175.4-1.32 0.08-2.632 0.032-3.936-0.112l-65.88-7.36-112.064 205.136a21.688 21.688 0 0 1-0.64 1.096c-11.552 18.712-33.136 29.008-60.792 29.008z m-59.4-112.192c-3.872 6.56-4.288 16.552-1.112 26.848 3.392 10.976 10.472 20.856 18.48 25.808 11.176 6.896 28.064 11.536 42.024 11.536h0.008c9.648 0 17.136-2.248 19.728-5.888l119.368-218.504a23.984 23.984 0 0 1 23.728-12.344l79.872 8.928c91.624-5.592 182.304-63.896 237.04-152.568 85.352-138.272 61.184-308.552-53.88-379.592-33.488-20.664-71.184-31.152-112.064-31.152-96.784 0-193.128 58.656-251.416 153.088-48.624 78.768-63.464 169.744-40.856 249.952l54.848 98.304c4.4 7.888 3.992 17.576-1.04 25.08l-134.728 200.504z" fill="#324654"/>
<path d="M262.448 591.712l-135.04 200.96c-16.592 26.88-1.88 69.408 25 86s78.408 24.384 95-2.504L367.2 656.904l81.88 9.152c96.968-5.128 196.464-64.16 258.12-164.04 92.456-149.776 64.832-334.504-61.696-412.616s-304.056-20.016-396.512 129.76c-54.264 87.904-67.112 187.832-42.92 271.2l-0.064-0.04 0.232 0.648" fill="#B9E3ED"/>
<path d="M207.08 917.784c-1.376 0-2.768-0.024-4.184-0.072-21.904-0.792-45.496-7.752-63.096-18.616-35.592-21.968-57.68-78.752-32.816-119.024a21.52 21.52 0 0 1 0.504-0.784l135.04-200.96a24.008 24.008 0 0 1 39.848 26.776L147.648 805.6c-3.864 6.56-4.288 16.56-1.104 26.848 3.392 10.976 10.472 20.856 18.48 25.808 10.52 6.496 26.072 11 39.616 11.496 10.768 0.368 19.328-1.904 22.136-5.856l119.368-218.496a23.984 23.984 0 0 1 23.728-12.344l79.872 8.928c91.624-5.592 182.304-63.896 237.04-152.568 85.352-138.272 61.184-308.552-53.88-379.592-55.088-34.008-122.896-40.48-190.968-18.192-69.504 22.744-130.776 72.512-172.52 140.128-49.016 79.408-63.704 171.224-40.296 251.912a23.952 23.952 0 0 1-0.008 13.408 23.888 23.888 0 0 1-14.904 16.16c-12.472 4.48-26.104-1.72-30.56-14.192a23.224 23.224 0 0 1-0.624-2.008c-27.176-93.688-10.576-199.56 45.552-290.488 47.688-77.256 118.168-134.272 198.44-160.536 81.712-26.76 163.784-18.592 231.096 22.96 137.592 84.936 168.776 284.848 69.512 445.648-63.264 102.488-169.512 169.696-277.272 175.392-1.32 0.08-2.632 0.032-3.936-0.112l-65.88-7.36-112.064 205.136a21.688 21.688 0 0 1-0.64 1.096c-11.6 18.792-33.072 29.008-60.752 29.008z" fill="#324654"/>
<path d="M214.208 473.408a24 24 0 0 1-24-24c0-189.328 85.304-315.192 246.688-363.992 115.656-34.984 201.472-20.936 286.944 46.96a24 24 0 0 1-29.856 37.584c-72.616-57.688-143.072-68.888-243.192-38.6-175.696 53.128-212.576 202.28-212.576 318.048a24.008 24.008 0 0 1-24.008 24z" fill="#FFFFFF"/>
<path d="M207.04 917.784c-22.8 0-48.56-7.168-67.232-18.688-35.592-21.968-57.68-78.752-32.816-119.024a21.52 21.52 0 0 1 0.504-0.784l125.496-186.752c-34.512-48.04-49.16-92.8-49.824-94.856a22.456 22.456 0 0 1-0.6-2.232c-26.536-93.296-9.808-198.488 46.008-288.896 66.968-108.488 178.96-175.88 292.264-175.88 49.216 0 96.688 13.248 137.28 38.304 137.592 84.936 168.776 284.848 69.512 445.648-63.272 102.488-169.52 169.696-277.28 175.392-1.32 0.08-2.632 0.032-3.936-0.112l-65.88-7.36-112.064 205.136a21.688 21.688 0 0 1-0.64 1.096c-11.552 18.712-33.136 29.008-60.792 29.008z m-59.4-112.192c-3.872 6.56-4.288 16.552-1.112 26.848 3.392 10.976 10.472 20.856 18.48 25.808 11.176 6.896 28.064 11.536 42.024 11.536h0.008c9.648 0 17.136-2.248 19.728-5.888l119.368-218.504a23.984 23.984 0 0 1 23.728-12.344l79.872 8.928c91.624-5.592 182.304-63.896 237.04-152.568 85.352-138.272 61.184-308.552-53.88-379.592-33.488-20.664-71.184-31.152-112.064-31.152-96.784 0-193.128 58.656-251.416 153.088-49.016 79.408-63.704 171.224-40.296 251.912l0.112 0.4c2.592 7.424 18.592 50.736 51.992 92.696a24.016 24.016 0 0 1 1.144 28.336l-134.728 200.496z" fill="#324654"/>
<path d="M533.728 660.624c-2.864 0-5.768-0.776-8.392-2.392l-328.256-202.64a15.992 15.992 0 1 1 16.808-27.224l328.256 202.64a16 16 0 0 1-8.416 29.616z" fill="#324654"/>
<path d="M352.4 630.656L133.576 760.96c-25.792 18.248-17.736 73.96 0.512 99.744 18.248 25.792 68.112 51.912 93.896 33.656l195.32-162.744 71.784 40.448c91.248 33.208 205.904 17.8 301.72-50.008 143.672-101.68 190.504-282.496 104.608-403.872-85.896-121.376-272-137.352-415.672-35.672-84.328 59.68-135.232 146.624-145.584 232.816l-0.04-0.064-0.04 0.68" fill="#FFBAB0"/>
<path d="M206.752 924.488c-11.72 0-24.472-2.752-37.76-8.28-21.872-9.096-42.76-25.048-54.496-41.64-11.736-16.584-19.84-41.584-21.144-65.24-1.68-30.6 7.672-54.736 26.36-67.96 0.512-0.36 1.04-0.704 1.584-1.032l218.824-130.304a23.976 23.976 0 0 1 32.904 8.344 23.992 23.992 0 0 1-8.344 32.896L146.984 780.912c-3.456 2.984-6.472 11.904-5.704 25.776 0.816 14.68 5.792 30.824 12.4 40.16 6.608 9.336 20.168 19.4 33.744 25.048 12.832 5.344 22.248 5.472 26.208 3.2L407.944 713.2a24 24 0 0 1 27.144-2.472l70.024 39.456c86.488 30.696 192.768 12.504 277.832-47.696 64.864-45.904 110.688-110.176 129.024-180.976 17.96-69.328 7.256-136.608-30.144-189.448-37.392-52.84-97.288-85.312-168.64-91.432-72.84-6.272-148.72 15.584-213.584 61.488-76.168 53.904-125.6 132.664-135.616 216.08a24.04 24.04 0 0 1-5.376 12.496 23.792 23.792 0 0 1-19.888 8.888c-13.232-0.76-23.36-11.768-22.6-25 0.04-0.712 0.112-1.424 0.216-2.128 11.64-96.848 68.328-187.792 155.544-249.512 74.104-52.448 161.24-77.368 245.416-70.128 85.672 7.352 158.016 46.96 203.712 111.528s58.992 145.968 37.432 229.208c-21.176 81.768-73.656 155.672-147.768 208.12-98.312 69.584-222.376 89.896-323.792 52.968a24.464 24.464 0 0 1-3.576-1.64l-57.36-32.32-182.6 152.144a20.8 20.8 0 0 1-1.504 1.152c-9.904 7-21.84 10.512-35.088 10.512z" fill="#783741"/>
<path d="M352.4 630.656L133.576 760.96c-25.792 18.248-17.736 73.96 0.512 99.744 18.248 25.792 68.112 51.912 93.896 33.656l195.32-162.744 71.784 40.448c91.248 33.208 205.904 17.8 301.72-50.008 143.672-101.68 190.504-282.496 104.608-403.872-85.896-121.376-272-137.352-415.672-35.672-84.328 59.68-135.232 146.624-145.584 232.816l-0.04-0.064-0.04 0.68 12.32 114.712z" fill="#FFBAB0"/>
<path d="M366.16 498.232a24 24 0 0 1-22.56-32.2c37.368-102.92 129.216-184.048 245.68-217.016 117.688-33.312 239.592-12.248 326.04 56.352a24 24 0 1 1-29.84 37.6c-74.392-59.032-180.224-76.896-283.136-47.768-101.664 28.776-181.52 98.76-213.64 187.216a23.984 23.984 0 0 1-22.544 15.816z" fill="#FFFFFF"/>
<path d="M206.744 924.464c-35.648 0-74.896-25.368-92.248-49.896-11.736-16.584-19.84-41.584-21.144-65.24-1.68-30.6 7.672-54.736 26.36-67.96 0.512-0.36 1.04-0.704 1.584-1.032l204.16-121.576c-13.304-68.808-9.648-102.664-9.152-106.552 0.056-0.48 0.136-0.952 0.224-1.416 12.08-96.232 68.624-186.504 155.344-247.872 65-46 142.088-71.336 217.064-71.336 96.776 0 181.36 41.088 232.064 112.736 45.696 64.568 58.992 145.968 37.432 229.208-21.176 81.768-73.656 155.672-147.768 208.12-64.952 45.968-141.992 71.288-216.936 71.288-37.512 0-73.464-6.168-106.848-18.32a24.464 24.464 0 0 1-3.576-1.64l-57.36-32.32L243.344 912.8a20.8 20.8 0 0 1-1.504 1.152c-9.848 6.976-21.656 10.512-35.096 10.512z m-59.76-143.552c-3.456 2.984-6.472 11.904-5.704 25.776 0.816 14.68 5.792 30.824 12.4 40.16 9.688 13.696 34.984 29.616 53.064 29.624 2.096 0 4.912-0.248 6.88-1.376l194.312-161.904a24 24 0 0 1 27.144-2.472l70.024 39.456c27.6 9.8 57.408 14.768 88.624 14.768 65.096 0 132.296-22.184 189.208-62.464 64.864-45.904 110.688-110.176 129.024-180.976 17.96-69.328 7.256-136.608-30.144-189.448-41.584-58.76-111.888-92.464-192.888-92.464-65.128 0-132.368 22.2-189.336 62.52-76.168 53.904-125.6 132.664-135.616 216.08a20.696 20.696 0 0 1-0.144 1.016c-0.448 5.848-2.232 40.624 12.016 106.368a24.008 24.008 0 0 1-11.176 25.704L146.984 780.912z" fill="#783741"/>
<path d="M580.912 800.768a15.968 15.968 0 0 1-13.072-6.76L345.968 480.504a16 16 0 1 1 26.12-18.488L593.952 775.52a16 16 0 0 1-13.04 25.248z" fill="#783741"/>
<path d="M644.408 442.672m-76 0a76 76 0 1 0 152 0 76 76 0 1 0-152 0Z" fill="#FFFFFF"/>
<path d="M644.408 534.672c-50.728 0-92-41.272-92-92s41.272-92 92-92 92 41.272 92 92-41.272 92-92 92z m0-152c-33.088 0-60 26.912-60 60s26.912 60 60 60 60-26.912 60-60-26.912-60-60-60z" fill="#783741"/>
</g>
</svg>